<?xml version="1.0" encoding="UTF-8"?>
<svg width="36px" height="36px" viewBox="0 0 36 36" version="1.1" xmlns="http://www.w3.org/2000/svg" xmlns:xlink="http://www.w3.org/1999/xlink">
    <!-- Generator: Sketch 49.2 (51160) - http://www.bohemiancoding.com/sketch -->
    <title>fb</title>
    <desc>Created with Sketch.</desc>
    <defs></defs>
    <g id="Page-1" stroke="none" stroke-width="1" fill="none" fill-rule="evenodd">
        <g id="bb-services-04" transform="translate(-1225.000000, -68.000000)">
            <g id="header" transform="translate(135.000000, 68.000000)">
                <g id="fb" transform="translate(1090.000000, 0.000000)">
                    <g id="Group-3">
                        <path d="M0,18 C0,8.0586 7.95512975,0 17.767562,0 C27.5799942,0 35.535124,8.0586 35.535124,18 C35.535124,27.9408 27.5799942,36 17.767562,36 C7.95512975,36 0,27.9408 0,18 Z" id="Shape" fill="#3B5998"></path>
                        <path d="M14.8001356,28 L18.7396555,28 L18.7396555,17.9987745 L21.3677546,17.9987745 L21.7159091,14.5526961 L18.7396555,14.5526961 L18.7437446,12.8272059 C18.7437446,11.9289216 18.8255258,11.4466912 20.0545813,11.4466912 L21.6972162,11.4466912 L21.6972162,8 L19.068533,8 C15.9111924,8 14.8001356,9.67218137 14.8001356,12.4834559 L14.8001356,14.5526961 L12.8321281,14.5526961 L12.8321281,17.9993873 L14.8001356,17.9993873 L14.8001356,28 L14.8001356,28 Z" id="Path" fill="#FFFFFF"></path>
                    </g>
                </g>
            </g>
        </g>
    </g>
</svg>